<?xml version="1.0" standalone="no"?>
<!DOCTYPE svg PUBLIC "-//W3C//DTD SVG 20010904//EN"
 "http://www.w3.org/TR/2001/REC-SVG-20010904/DTD/svg10.dtd">
<svg version="1.0" xmlns="http://www.w3.org/2000/svg"
 width="279.000000pt" height="339.000000pt" viewBox="0 0 279.000000 339.000000"
 preserveAspectRatio="xMidYMid meet">

<g transform="translate(0.000000,339.000000) scale(0.100000,-0.100000)"
fill="#000000" stroke="none">
<path d="M1885 3342 c111 -73 141 -181 89 -319 l-25 -68 27 -22 27 -21 -30
-39 c-121 -152 -320 -288 -556 -382 l-79 -31 -64 44 -64 45 -57 -30 c-84 -44
-183 -112 -183 -126 0 -22 -27 -14 -48 12 -25 31 -36 31 -50 1 -10 -23 -9 -24
44 -31 139 -17 423 59 659 178 171 85 297 181 390 296 55 68 67 89 43 75 -8
-4 -10 -3 -5 2 5 5 14 9 20 9 7 0 11 8 11 18 -1 9 3 14 9 10 6 -4 8 0 4 11 -4
9 -3 15 2 12 15 -10 54 96 52 143 -2 68 -71 169 -116 172 -5 0 -14 7 -18 15
-5 8 -12 12 -18 9 -5 -4 -9 -2 -9 3 0 6 -11 13 -24 16 -13 3 -32 9 -43 12 -10
3 -4 -3 12 -14z m192 -204 c-3 -8 -6 -5 -6 6 -1 11 2 17 5 13 3 -3 4 -12 1
-19z m0 -80 c-3 -8 -6 -5 -6 6 -1 11 2 17 5 13 3 -3 4 -12 1 -19z"/>
<path d="M1254 3168 l-19 -23 23 19 c21 18 27 26 19 26 -2 0 -12 -10 -23 -22z"/>
<path d="M1189 3103 c-13 -16 -12 -17 4 -4 9 7 17 15 17 17 0 8 -8 3 -21 -13z"/>
<path d="M1068 2973 c-23 -4 -34 -17 -62 -76 -33 -69 -82 -224 -73 -233 2 -2
11 24 21 58 28 99 96 238 117 238 10 0 21 5 24 10 3 6 5 9 3 9 -2 -1 -15 -4
-30 -6z"/>
<path d="M1883 2730 l-83 -77 53 14 c98 25 136 -6 104 -88 -8 -21 -14 -39 -12
-39 8 0 55 88 76 143 l22 58 -24 25 c-45 48 -48 47 -136 -36z"/>
<path d="M921 2634 c0 -11 3 -14 6 -6 3 7 2 16 -1 19 -3 4 -6 -2 -5 -13z"/>
<path d="M1436 2459 c-105 -40 -237 -73 -370 -95 -80 -13 -110 -22 -117 -35
-8 -15 -2 -22 33 -43 66 -38 164 -67 258 -76 l85 -9 -92 3 -92 3 -6 -63 c-4
-34 -5 -68 -2 -76 3 -7 6 -2 6 10 1 22 4 23 44 17 66 -11 182 -43 252 -70 86
-32 88 -30 79 129 -5 92 -4 126 5 126 6 0 11 -9 11 -20 0 -11 6 -20 13 -20 8
0 9 -2 1 -8 -8 -5 0 -235 32 -862 24 -470 43 -881 44 -912 l0 -58 65 0 66 0
-5 32 c-3 18 -33 393 -66 833 -33 440 -64 812 -69 827 -7 22 -4 31 20 54 24
23 29 36 29 76 0 53 -2 54 -53 33 -20 -8 -38 -15 -39 -15 -2 0 -3 35 -3 78 0
111 -12 172 -33 171 -9 0 -53 -14 -96 -30z"/>
<path d="M1123 2010 c0 -25 2 -35 4 -22 2 12 2 32 0 45 -2 12 -4 2 -4 -23z"/>
<path d="M1113 1920 c0 -25 2 -35 4 -22 2 12 2 32 0 45 -2 12 -4 2 -4 -23z"/>
<path d="M1103 1825 c0 -22 2 -30 4 -17 2 12 2 30 0 40 -3 9 -5 -1 -4 -23z"/>
<path d="M1092 1730 c0 -19 2 -27 5 -17 2 9 2 25 0 35 -3 9 -5 1 -5 -18z"/>
<path d="M1082 1635 c0 -16 2 -22 5 -12 2 9 2 23 0 30 -3 6 -5 -1 -5 -18z"/>
<path d="M1072 1545 c0 -16 2 -22 5 -12 2 9 2 23 0 30 -3 6 -5 -1 -5 -18z"/>
<path d="M1062 1450 c0 -14 2 -19 5 -12 2 6 2 18 0 25 -3 6 -5 1 -5 -13z"/>
<path d="M1286 1401 c-21 -23 -55 -31 -84 -20 -22 8 -22 8 -22 -131 0 -132 1
-140 22 -154 12 -9 30 -16 39 -16 9 0 27 -9 41 -19 32 -26 52 -30 53 -11 0 8
19 19 44 27 25 7 48 18 53 25 4 7 8 72 8 145 l0 131 -35 -1 c-21 -1 -46 7 -64
21 -36 27 -34 26 -55 3z m64 -44 c0 -42 -26 -66 -70 -64 -23 1 -39 6 -36 12 2
5 8 9 14 8 6 -2 14 7 18 20 10 34 24 47 50 47 18 0 24 -5 24 -23z m-130 -12
c0 -8 -4 -15 -10 -15 -5 0 -10 7 -10 15 0 8 5 15 10 15 6 0 10 -7 10 -15z m40
0 c0 -8 -4 -15 -10 -15 -5 0 -10 7 -10 15 0 8 5 15 10 15 6 0 10 -7 10 -15z
m120 0 c0 -8 -4 -15 -10 -15 -5 0 -10 7 -10 15 0 8 5 15 10 15 6 0 10 -7 10
-15z m50 0 c0 -8 -7 -15 -15 -15 -8 0 -15 7 -15 15 0 8 7 15 15 15 8 0 15 -7
15 -15z m-213 -51 c-9 -9 -28 6 -21 18 4 6 10 6 17 -1 6 -6 8 -13 4 -17z m213
-1 c0 -13 -3 -13 -15 -3 -8 7 -12 16 -9 21 8 13 24 1 24 -18z m-50 7 c0 -5 -4
-10 -10 -10 -5 0 -10 5 -10 10 0 6 5 10 10 10 6 0 10 -4 10 -10z m48 -112 l-3
-83 -45 -15 c-25 -8 -50 -18 -56 -22 -9 -6 -53 10 -114 41 -11 6 -16 29 -18
85 l-3 76 121 0 121 0 -3 -82z"/>
<path d="M1207 1193 c1 -50 5 -69 16 -71 10 -2 13 6 11 30 -3 33 -3 33 7 -4
16 -56 29 -46 29 21 0 33 3 66 6 75 4 11 1 16 -10 16 -11 0 -16 -9 -17 -27
l-1 -28 -10 28 c-18 50 -33 32 -31 -40z"/>
<path d="M1295 1179 c0 -50 4 -84 11 -86 7 -2 10 12 10 39 -1 29 3 42 12 41 6
-2 12 4 12 12 0 8 -7 15 -15 15 -8 0 -15 6 -15 13 0 22 12 28 28 15 12 -10 14
-9 11 7 -3 13 -14 21 -29 23 -25 3 -25 2 -25 -79z"/>
<path d="M1362 1180 c-2 -40 1 -70 7 -70 24 0 41 14 40 34 -1 16 -2 17 -6 4
-2 -10 -9 -18 -15 -18 -6 0 -8 24 -6 60 2 37 -1 60 -7 60 -7 0 -12 -29 -13
-70z"/>
<path d="M1051 1354 c0 -11 3 -14 6 -6 3 7 2 16 -1 19 -3 4 -6 -2 -5 -13z"/>
<path d="M1462 1243 c-1 -61 -5 -120 -8 -130 -5 -17 -5 -17 6 -1 7 11 9 59 7
130 l-3 113 -2 -112z"/>
<path d="M1042 1173 c-7 -60 -30 -258 -50 -440 l-38 -333 53 0 53 0 0 440 c0
242 -1 440 -3 440 -2 0 -8 -48 -15 -107z"/>
<path d="M202 338 c-16 -16 -15 -63 1 -76 6 -5 38 -15 70 -22 85 -17 72 -40
-24 -40 -37 0 -49 -4 -49 -15 0 -12 14 -15 68 -15 75 0 92 10 92 51 0 32 -14
44 -60 54 -92 18 -95 33 -8 37 50 2 63 6 66 21 3 15 -5 17 -70 17 -44 0 -79
-5 -86 -12z"/>
<path d="M430 280 c0 -93 16 -110 99 -110 77 0 91 17 91 112 0 61 -2 68 -20
68 -17 0 -19 -8 -22 -67 -3 -63 -5 -68 -30 -77 -18 -7 -35 -6 -53 2 -23 11
-25 17 -25 77 0 58 -2 65 -20 65 -18 0 -20 -7 -20 -70z"/>
<path d="M700 260 c0 -83 1 -90 20 -90 16 0 20 7 20 30 0 30 1 30 53 30 62 0
77 11 77 60 0 52 -14 60 -97 60 l-73 0 0 -90z m130 25 c0 -23 -4 -25 -45 -25
-41 0 -45 2 -45 25 0 23 4 25 45 25 41 0 45 -2 45 -25z"/>
<path d="M956 334 c-19 -18 -22 -114 -6 -145 9 -16 22 -19 85 -19 59 0 75 3
75 15 0 10 -16 15 -62 17 -50 2 -63 6 -66 21 -3 15 5 17 57 17 54 0 61 2 61
20 0 18 -7 20 -60 20 -47 0 -60 3 -60 15 0 12 14 15 65 15 58 0 65 2 65 20 0
18 -7 20 -69 20 -50 0 -74 -4 -85 -16z"/>
<path d="M1190 260 c0 -71 3 -90 14 -90 9 0 16 12 18 28 3 23 8 27 40 30 32 3
39 -1 53 -27 11 -22 23 -31 40 -31 25 0 25 0 8 26 -13 21 -14 30 -5 45 15 24
15 82 0 97 -7 7 -43 12 -90 12 l-78 0 0 -90z m138 28 c-2 -19 -10 -24 -47 -26
-47 -4 -67 8 -58 32 5 12 20 16 57 16 48 0 51 -2 48 -22z"/>
<path d="M1650 260 l0 -90 73 0 c43 0 78 5 85 12 7 7 12 40 12 78 0 38 -5 71
-12 78 -7 7 -42 12 -85 12 l-73 0 0 -90z m130 35 c0 -11 -12 -15 -50 -15 -46
0 -60 7 -43 23 3 4 26 7 50 7 32 0 43 -4 43 -15z m6 -66 c10 -16 -15 -29 -58
-29 -37 0 -54 12 -43 30 8 14 92 13 101 -1z"/>
<path d="M1917 332 c-24 -27 -23 -123 1 -145 25 -23 134 -24 156 -1 24 23 22
126 -2 147 -27 25 -133 23 -155 -1z m137 -38 c21 -55 -3 -94 -58 -94 -48 0
-56 9 -56 61 l0 49 54 0 c40 0 55 -4 60 -16z"/>
<path d="M2150 348 c0 -2 7 -25 15 -53 9 -27 20 -67 26 -87 14 -53 36 -48 61
12 11 28 24 50 28 50 4 0 17 -22 28 -50 21 -51 46 -65 56 -32 3 9 14 50 25 90
19 70 19 72 1 72 -13 0 -22 -12 -30 -37 -6 -21 -14 -45 -17 -53 -3 -9 -14 5
-28 38 -13 28 -29 52 -35 52 -6 0 -21 -23 -34 -52 -25 -56 -28 -55 -45 10 -9
31 -17 42 -31 42 -11 0 -20 -1 -20 -2z"/>
<path d="M2482 263 l3 -88 73 -3 c58 -2 72 0 72 12 0 11 -14 16 -57 18 l-58 3
-3 73 c-2 56 -6 72 -18 72 -12 0 -14 -15 -12 -87z"/>
<path d="M70 65 l54 -55 1298 0 1298 0 25 50 c14 27 25 52 25 55 0 3 -620 5
-1377 5 l-1377 0 54 -55z"/>
</g>
</svg>
